<mxfile host="app.diagrams.net" modified="2024-05-08T15:26:24.271Z" agent="Mozilla/5.0 (Windows NT 10.0; Win64; x64) AppleWebKit/537.36 (KHTML, like Gecko) Chrome/124.0.0.0 Safari/537.36" etag="Iw89C4gjp9t1nWCb3lDo" version="24.3.1" type="device">
  <diagram name="Seite-1" id="duWukGg2O8AS--dhCgAH">
    <mxGraphModel dx="591" dy="637" grid="1" gridSize="10" guides="1" tooltips="1" connect="1" arrows="1" fold="1" page="1" pageScale="1" pageWidth="827" pageHeight="1169" math="0" shadow="0">
      <root>
        <mxCell id="0" />
        <mxCell id="1" parent="0" />
        <mxCell id="5DHvhS9sNAE1Ao_YfdnJ-1" value="IndexCardOverviewBloc" style="ellipse;whiteSpace=wrap;html=1;fillColor=#20EFC0;" vertex="1" parent="1">
          <mxGeometry x="290" y="30" width="170" height="130" as="geometry" />
        </mxCell>
        <mxCell id="5DHvhS9sNAE1Ao_YfdnJ-3" value="IndexCardOverview" style="rounded=0;whiteSpace=wrap;html=1;fillColor=#D29FFF;" vertex="1" parent="1">
          <mxGeometry x="20" y="40" width="120" height="100" as="geometry" />
        </mxCell>
        <mxCell id="5DHvhS9sNAE1Ao_YfdnJ-5" value="" style="endArrow=classic;html=1;rounded=0;exitX=1;exitY=0.5;exitDx=0;exitDy=0;entryX=0.031;entryY=0.308;entryDx=0;entryDy=0;entryPerimeter=0;" edge="1" parent="1" target="5DHvhS9sNAE1Ao_YfdnJ-1">
          <mxGeometry width="50" height="50" relative="1" as="geometry">
            <mxPoint x="139.29" y="70" as="sourcePoint" />
            <mxPoint x="290" y="70" as="targetPoint" />
          </mxGeometry>
        </mxCell>
        <mxCell id="5DHvhS9sNAE1Ao_YfdnJ-6" value="&lt;div&gt;&lt;font style=&quot;font-size: 10px;&quot;&gt;&lt;b&gt;&amp;lt;&amp;lt;Event&amp;gt;&amp;gt;&lt;/b&gt;&lt;/font&gt;&lt;/div&gt;&lt;font style=&quot;font-size: 10px;&quot;&gt;&lt;b&gt;UpdateSelectedIndexCards&lt;/b&gt;&lt;/font&gt;" style="text;html=1;align=center;verticalAlign=middle;whiteSpace=wrap;rounded=0;" vertex="1" parent="1">
          <mxGeometry x="150" y="30" width="130" height="30" as="geometry" />
        </mxCell>
        <mxCell id="5DHvhS9sNAE1Ao_YfdnJ-10" value="" style="endArrow=classic;html=1;rounded=0;entryX=1.001;entryY=0.856;entryDx=0;entryDy=0;entryPerimeter=0;" edge="1" parent="1">
          <mxGeometry width="50" height="50" relative="1" as="geometry">
            <mxPoint x="290" y="110" as="sourcePoint" />
            <mxPoint x="140" y="110" as="targetPoint" />
          </mxGeometry>
        </mxCell>
        <mxCell id="5DHvhS9sNAE1Ao_YfdnJ-11" value="&lt;div&gt;&lt;font style=&quot;font-size: 10px;&quot;&gt;&lt;b&gt;&amp;lt;&amp;lt;State&amp;gt;&amp;gt;&lt;/b&gt;&lt;/font&gt;&lt;/div&gt;&lt;font style=&quot;font-size: 10px;&quot;&gt;&lt;b&gt;IndexCardSelectionMode&lt;/b&gt;&lt;/font&gt;" style="text;html=1;align=center;verticalAlign=middle;whiteSpace=wrap;rounded=0;" vertex="1" parent="1">
          <mxGeometry x="150" y="140" width="130" height="30" as="geometry" />
        </mxCell>
        <mxCell id="5DHvhS9sNAE1Ao_YfdnJ-12" value="1." style="text;html=1;align=center;verticalAlign=middle;whiteSpace=wrap;rounded=0;" vertex="1" parent="1">
          <mxGeometry x="200" y="10" width="30" height="20" as="geometry" />
        </mxCell>
        <mxCell id="5DHvhS9sNAE1Ao_YfdnJ-14" value="2." style="text;html=1;align=center;verticalAlign=middle;whiteSpace=wrap;rounded=0;" vertex="1" parent="1">
          <mxGeometry x="200" y="120" width="30" height="20" as="geometry" />
        </mxCell>
      </root>
    </mxGraphModel>
  </diagram>
</mxfile>
